<?xml version="1.0" encoding="utf-8"?>
<!-- Generator: Adobe Illustrator 22.0.0, SVG Export Plug-In . SVG Version: 6.00 Build 0)  -->
<svg version="1.1" id="Layer_1" xmlns="http://www.w3.org/2000/svg" xmlns:xlink="http://www.w3.org/1999/xlink" x="0px" y="0px"
	 viewBox="0 0 128 128" enable-background="new 0 0 128 128" xml:space="preserve">
<circle fill="#FFFFFF" cx="65" cy="64" r="36"/>
<path fill="#FDD835" d="M64.7,4.6C31.7,4.6,5,31.3,5,64.3c0,33,26.7,59.7,59.7,59.7s59.7-26.7,59.7-59.7
	C124.3,31.3,97.6,4.6,64.7,4.6z M64.7,99.1c-19.2,0-34.8-15.6-34.8-34.8c0-19.2,15.6-34.8,34.8-34.8s34.8,15.6,34.8,34.8
	C99.5,83.5,83.9,99.1,64.7,99.1z"/>
<path fill="#37474F" d="M64.7,109C38.9,109,18.2,87.2,20,61.1c1.5-22,19.4-39.9,41.4-41.4c26.1-1.8,47.9,18.9,47.9,44.6v5H64.7v-9.9
	h34.5c-2.6-18-19-31.6-38.1-29.6c-16.1,1.6-29.1,14.5-30.9,30.6c-2.4,21,14.1,38.8,34.6,38.8c3,0,6.1-0.4,9-1.2l2.6,9.6
	C72.5,108.5,68.6,109,64.7,109z"/>
<circle fill="#37474F" cx="106.9" cy="106.5" r="19.9"/>
<polygon fill="#FFFFFF" points="116.9,96.6 116.9,116.5 111.9,116.5 111.9,103.6 110.5,105.1 106.9,108.6 103.4,105.1 102,103.6 
	102,116.5 97,116.5 97,96.6 102,96.6 106.9,101.6 111.9,96.6 "/>
<polygon fill="#F2F2F2" points="116.9,96.6 116.9,116.5 113.1,116.5 113.1,101.9 109.6,105.5 106.9,108.1 104.3,105.5 100.7,101.9 
	100.7,116.5 97,116.5 97,96.6 100.7,96.6 106.9,102.8 113.1,96.6 "/>
</svg>
