<?xml version="1.0" encoding="utf-8"?>
<!-- Generator: Adobe Illustrator 22.0.0, SVG Export Plug-In . SVG Version: 6.00 Build 0)  -->
<svg version="1.1" id="Layer_1" xmlns="http://www.w3.org/2000/svg" xmlns:xlink="http://www.w3.org/1999/xlink" x="0px" y="0px"
	 viewBox="0 0 907 510" enable-background="new 0 0 907 510" xml:space="preserve">
<rect fill="#FDD835" width="907" height="510"/>
<path fill="#FFFFFF" d="M450.4,132c-66.3,0-120.1,53.8-120.1,120.1c0,66.3,53.8,120.1,120.1,120.1s120.1-53.8,120.1-120.1
	C570.5,185.8,516.8,132,450.4,132z M450.4,322.1c-38.7,0-70-31.4-70-70c0-38.7,31.4-70,70-70s70,31.4,70,70
	C520.5,290.8,489.1,322.1,450.4,322.1z"/>
<path fill="#37474F" d="M450.4,342.1c-51.8,0-93.5-43.9-89.8-96.5c3.1-44.4,39-80.3,83.4-83.4c52.6-3.7,96.5,38,96.5,89.8v10h-90.1
	v-20h69.3c-5.2-36.2-38.2-63.6-76.6-59.7c-32.4,3.3-58.6,29.2-62.3,61.6c-4.7,42.2,28.3,78.1,69.6,78.1c6.1,0,12.2-0.8,18.1-2.4
	l5.2,19.3C466.1,341.1,458.3,342.1,450.4,342.1z"/>
<circle fill="#37474F" cx="535.4" cy="337" r="40"/>
<polygon fill="#FFFFFF" points="555.5,317.1 555.5,357.1 545.5,357.1 545.5,331.3 542.6,334.2 535.5,341.3 528.4,334.2 525.5,331.3 
	525.5,357.1 515.5,357.1 515.5,317.1 525.5,317.1 535.5,327.1 545.5,317.1 "/>
<polygon fill="#F2F2F2" points="555.5,317.1 555.5,357.1 548,357.1 548,327.7 540.8,334.9 535.5,340.3 530.2,334.9 523,327.7 
	523,357.1 515.5,357.1 515.5,317.1 523,317.1 535.5,329.6 548,317.1 "/>
</svg>
